# xmcd
#
# Track frame offsets: 
#        150
#        17597
#        30808
#        45939
#        59354
#        84578
#        102535
#        118507
#        135378
#        151715
#        165785
#        185975
#        203154
#        215735
#        233530
#        247751
#        264358
#        279869
#        297398
#        313329
#
# Disc length: 4514 seconds
#
# Revision: 2
# Processed by: cddbd v1.5.2PL0 Copyright (c) Steve Scherf et al.
# Submitted via: ExactAudioCopy v0.95a4
#
DISCID=0311a014
DTITLE=Brook Benton - The Platinum Collection
DYEAR=2007
DGENRE=Oldies
TTITLE0=Rainy Night in Georgia
TTITLE1=Shoes
TTITLE2=Don't It Make You Want To Go Home
TTITLE3=Save The Last Dance for Me
TTITLE4=My Way
TTITLE5=Willie And Laura Mae Jones
TTITLE6=Aspen Colorado
TTITLE7=For Lee Ann
TTITLE8=Don't Think Twice It's Allright
TTITLE9=Born Under A Bad Sign
TTITLE10=Let Me Fix It
TTITLE11=Life Has It's Little Ups And Downs
TTITLE12=Can't Take My Eyes Off You
TTITLE13=A Little Bit Of Soap
TTITLE14=Where Do I Go From Here
TTITLE15=I've Gotta Be Me
TTITLE16=Willoughby Grove
TTITLE17=Sidewalks Of Chicago
TTITLE18=Country Comfort
TTITLE19=Please Send Me Someone To Love
EXTD=Year: 2007
EXTT0=
EXTT1=
EXTT2=
EXTT3=
EXTT4=
EXTT5=
EXTT6=
EXTT7=
EXTT8=
EXTT9=
EXTT10=
EXTT11=
EXTT12=
EXTT13=
EXTT14=
EXTT15=
EXTT16=
EXTT17=
EXTT18=
EXTT19=
PLAYORDER=
